<svg width="258" height="79" viewBox="0 0 258 79" fill="none" xmlns="http://www.w3.org/2000/svg">
<path d="M17.1999 31.474C19.71 27.1573 23.5538 23.7724 28.1531 21.8281V21.8281C36.5383 18.2835 46.2241 20.005 52.8742 26.222L71.9048 44.0132C72.999 45.0361 73.8019 46.3313 74.2315 47.7663V47.7663C75.6979 52.6641 72.5178 57.7332 67.4699 58.5443L33.6599 63.9767C26.0631 65.1973 18.4933 61.6435 14.5795 55.019V55.019C11.134 49.1871 11.1089 41.9485 14.514 36.0929L17.1999 31.474Z" fill="url(#paint0_linear)"/>
<path d="M30.5624 36.4957C32.2504 33.5777 34.8406 31.2872 37.9431 29.9688V29.9688C43.6191 27.5569 50.184 28.7262 54.6781 32.9496L67.5506 45.0465C68.2926 45.7438 68.8366 46.6252 69.1272 47.601V47.601C70.1199 50.9341 67.9564 54.3805 64.5231 54.935L41.7472 58.6136C36.5717 59.4495 31.4135 57.0233 28.7571 52.5035V52.5035C26.4353 48.5532 26.4184 43.6592 28.7128 39.6929L30.5624 36.4957Z" fill="white"/>
<path d="M39.4684 41.5476C40.5576 39.7029 42.2152 38.2609 44.1929 37.4375V37.4375C47.7621 35.9516 51.8695 36.6771 54.7138 39.2957L62.8319 46.7701C63.2953 47.1966 63.6362 47.7393 63.8193 48.3419V48.3419C64.4433 50.3943 63.1095 52.5246 60.9908 52.8599L46.3968 55.1692C43.224 55.6712 40.0641 54.1962 38.4116 51.4415V51.4415C36.9255 48.9643 36.9147 45.8724 38.3835 43.3849L39.4684 41.5476Z" fill="url(#paint1_linear)"/>
<path d="M105.93 56.5859V34.6133L108.713 33.2949H108.859V43.6074H117.502V34.6133L120.285 33.2949H120.432V55.2676L117.648 56.5859H117.502V46.2734H108.859V55.2676L106.076 56.5859H105.93ZM128.12 48.9688L130.903 47.6504H131.049V48.9688C131.049 50.2578 131.401 51.3174 132.104 52.1475C132.954 53.1533 134.091 53.6562 135.517 53.6562C136.914 53.6562 138.051 53.1533 138.93 52.1475C139.624 51.3564 139.97 50.3457 139.97 49.1152C139.97 47.9629 139.682 47.0498 139.106 46.376C138.305 45.458 137.099 44.999 135.488 44.999C134.15 44.999 133.066 45.2139 132.236 45.6436L137.085 36.5469H129.409V36.4004L130.595 33.8809H141.626L136.601 42.6699C138.32 42.6797 139.755 43.1924 140.908 44.208C142.236 45.3799 142.9 47.0059 142.9 49.0859C142.9 51.0781 142.246 52.7725 140.937 54.1689C139.599 55.585 137.793 56.293 135.517 56.293C133.242 56.293 131.435 55.585 130.097 54.1689C128.779 52.7725 128.12 51.0391 128.12 48.9688ZM150.573 56.5859V34.6133L153.357 33.2949H153.503V44.3252L161.457 33.2949H161.604L164.182 34.5107L157.649 43.2119C159.895 43.2607 161.662 43.915 162.951 45.1748C164.27 46.4639 164.929 48.1973 164.929 50.375V55.2676L162.146 56.5859H161.999V50.375C161.999 49.0664 161.648 48.0068 160.945 47.1963C160.075 46.1904 159.011 45.6875 157.751 45.6875C156.472 45.6875 155.407 46.1904 154.558 47.1963C153.855 48.0264 153.503 49.0859 153.503 50.375V55.2676L150.72 56.5859H150.573ZM172.983 50.2578L175.679 48.9688H175.825C175.825 50.2676 176.177 51.3271 176.88 52.1475C177.759 53.1533 178.891 53.6562 180.278 53.6562C181.694 53.6562 182.837 53.1533 183.706 52.1475C184.409 51.3369 184.761 50.2773 184.761 48.9688V46.2441C183.53 47.3965 182.041 47.9727 180.293 47.9727C178.017 47.9727 176.211 47.2646 174.873 45.8486C173.554 44.4521 172.895 42.7676 172.895 40.7949C172.895 38.8027 173.554 37.1084 174.873 35.7119C176.211 34.2959 178.017 33.5879 180.293 33.5879C182.568 33.5879 184.375 34.2959 185.713 35.7119C187.031 37.1084 187.69 38.793 187.69 40.7656V48.9688C187.69 51.0391 187.031 52.7725 185.713 54.1689C184.375 55.585 182.568 56.293 180.293 56.293C177.939 56.293 176.133 55.6387 174.873 54.3301C173.613 53.0117 172.983 51.6543 172.983 50.2578ZM180.293 45.3359C181.689 45.3359 182.827 44.833 183.706 43.8271C184.409 43.0166 184.761 41.9961 184.761 40.7656C184.761 39.5645 184.409 38.5537 183.706 37.7334C182.846 36.7275 181.709 36.2246 180.293 36.2246C178.916 36.2246 177.778 36.7275 176.88 37.7334C176.177 38.5244 175.825 39.5352 175.825 40.7656C175.825 41.9863 176.177 43.0068 176.88 43.8271C177.739 44.833 178.877 45.3359 180.293 45.3359ZM195.217 56.5859V45.4531C195.217 43.8418 195.823 42.4404 197.034 41.249C198.166 40.1455 199.587 39.5938 201.296 39.5938C202.849 39.5938 204.192 40.1602 205.325 41.293C205.539 41.5078 205.735 41.7617 205.911 42.0547C206.086 41.7715 206.282 41.5225 206.496 41.3076C207.717 40.165 209.06 39.5938 210.525 39.5938C212.214 39.5938 213.635 40.1455 214.787 41.249C215.998 42.4209 216.604 43.8223 216.604 45.4531V55.2676L213.821 56.5859H213.674V45.4531C213.674 44.3301 213.367 43.5098 212.751 42.9922C212.146 42.4648 211.404 42.2012 210.525 42.2012C209.646 42.2012 208.899 42.4648 208.284 42.9922C207.678 43.5098 207.375 44.3301 207.375 45.4531V55.2676L204.592 56.5859H204.446V45.4531C204.446 44.3301 204.138 43.5098 203.523 42.9922C202.917 42.4648 202.175 42.2012 201.296 42.2012C200.417 42.2012 199.67 42.4648 199.055 42.9922C198.45 43.5098 198.147 44.3301 198.147 45.4531V55.2676L195.364 56.5859H195.217ZM235.557 49.5107V50.4336C235.557 52.0449 234.951 53.4463 233.74 54.6377C232.607 55.7412 231.187 56.293 229.478 56.293C227.788 56.293 226.367 55.7412 225.215 54.6377C224.004 53.4658 223.398 52.0645 223.398 50.4336V45.4531C223.398 43.8418 224.004 42.4404 225.215 41.249C226.348 40.1455 227.769 39.5938 229.478 39.5938C231.138 39.5938 232.559 40.1455 233.74 41.249C234.951 42.3818 235.557 43.6416 235.557 45.0283V45.0576L226.621 52.0596C226.768 52.3916 226.973 52.6699 227.236 52.8945C227.852 53.4219 228.599 53.6855 229.478 53.6855C230.356 53.6855 231.099 53.4219 231.704 52.8945C232.319 52.3672 232.627 51.6787 232.627 50.8291L235.41 49.5107H235.557ZM226.328 49.1006L232.451 44.1348C232.295 43.6562 232.051 43.2754 231.719 42.9922C231.104 42.4648 230.356 42.2012 229.478 42.2012C228.599 42.2012 227.852 42.4648 227.236 42.9922C226.631 43.5098 226.328 44.3301 226.328 45.4531V49.1006ZM242.512 48.9688L245.296 47.6504H245.442V48.9688C245.442 50.2578 245.794 51.3174 246.497 52.1475C247.346 53.1533 248.484 53.6562 249.91 53.6562C251.306 53.6562 252.444 53.1533 253.323 52.1475C254.016 51.3564 254.363 50.3457 254.363 49.1152C254.363 47.9629 254.075 47.0498 253.499 46.376C252.698 45.458 251.492 44.999 249.88 44.999C248.543 44.999 247.459 45.2139 246.629 45.6436L251.477 36.5469H243.801V36.4004L244.988 33.8809H256.018L250.994 42.6699C252.712 42.6797 254.148 43.1924 255.3 44.208C256.629 45.3799 257.293 47.0059 257.293 49.0859C257.293 51.0781 256.638 52.7725 255.33 54.1689C253.992 55.585 252.185 56.293 249.91 56.293C247.634 56.293 245.828 55.585 244.49 54.1689C243.171 52.7725 242.512 51.0391 242.512 48.9688Z" fill="url(#paint2_linear)"/>
<defs>
<linearGradient id="paint0_linear" x1="9" y1="28" x2="77" y2="54.5" gradientUnits="userSpaceOnUse">
<stop stop-color="#FE5C78"/>
<stop offset="1" stop-color="#35CAF9"/>
</linearGradient>
<linearGradient id="paint1_linear" x1="36" y1="35" x2="65" y2="56" gradientUnits="userSpaceOnUse">
<stop stop-color="#FE5C78"/>
<stop offset="1" stop-color="#35CAF9"/>
</linearGradient>
<linearGradient id="paint2_linear" x1="103" y1="27" x2="264" y2="56" gradientUnits="userSpaceOnUse">
<stop stop-color="#F39FB1"/>
<stop offset="1" stop-color="#44C1EF"/>
</linearGradient>
</defs>
</svg>
